<?xml version="1.0" encoding="UTF-8"?>
<svg version="1.1" xmlns="http://www.w3.org/2000/svg" width="501" height="498">
<path d="M0 0 C3.43605181 1.48229451 5.68701591 3.4295174 8.328125 6.0625 C9.52695313 7.25746094 9.52695313 7.25746094 10.75 8.4765625 C11.575 9.30929688 12.4 10.14203125 13.25 11 C14.09046875 11.83273438 14.9309375 12.66546875 15.796875 13.5234375 C16.5909375 14.32007812 17.385 15.11671875 18.203125 15.9375 C18.93176758 16.66839844 19.66041016 17.39929688 20.41113281 18.15234375 C22 20 22 20 22 22 C22.66 22 23.32 22 24 22 C24 22.66 24 23.32 24 24 C24.66 24 25.32 24 26 24 C27.26953125 25.29296875 27.26953125 25.29296875 28.8125 27.1875 C32.83610721 31.95590259 37.24599605 36.27798618 41.73168945 40.60620117 C43.19058334 42.03482136 44.5999677 43.51364992 46 45 C46 45.66 46 46.32 46 47 C46.59039062 47.25265625 47.18078125 47.5053125 47.7890625 47.765625 C50.25966701 49.1449731 51.57950557 50.57517576 53.375 52.75 C55.62858859 55.42704908 57.91287165 57.95183425 60.4375 60.375 C63 63 63 63 63 65 C63.66 65 64.32 65 65 65 C65 65.66 65 66.32 65 67 C65.66 67 66.32 67 67 67 C68.36176922 68.64351457 69.68962066 70.31522656 71 72 C73.2405365 74.28942094 75.52347521 76.53260083 77.81030273 78.77563477 C79.81419567 80.74307059 81.81340658 82.7151887 83.8125 84.6875 C84.50537109 85.36361328 85.19824219 86.03972656 85.91210938 86.73632812 C86.56630859 87.38408203 87.22050781 88.03183594 87.89453125 88.69921875 C88.49112549 89.28533936 89.08771973 89.87145996 89.70239258 90.4753418 C91 92 91 92 91 94 C91.66 94 92.32 94 93 94 C93 94.66 93 95.32 93 96 C93.66 96 94.32 96 95 96 C96.33333333 97.66666667 97.66666667 99.33333333 99 101 C99.66 101 100.32 101 101 101 C101.27150879 100.34628418 101.54301758 99.69256836 101.82275391 99.01904297 C116.14175271 64.55770307 116.14175271 64.55770307 119 59 C122.82852379 60.51761303 124.73321866 62.79343415 127.25 66 C128.30960938 67.3303125 128.30960938 67.3303125 129.390625 68.6875 C131 71 131 71 131 73 C131.66 73 132.32 73 133 73 C134.4453125 74.8359375 134.4453125 74.8359375 136.125 77.375 C139.82264464 82.8140665 143.85845449 87.89586871 148 93 C149.33951184 94.66170503 150.67320127 96.3281266 152 98 C152.5775 98.721875 153.155 99.44375 153.75 100.1875 C155 102 155 102 155 104 C155.66 104 156.32 104 157 104 C157.66 105.65 158.32 107.3 159 109 C159.66 109 160.32 109 161 109 C162.37898043 110.69810754 163.67959478 112.46035459 164.9375 114.25 C165.62714844 115.22453125 166.31679688 116.1990625 167.02734375 117.203125 C167.67832031 118.12609375 168.32929688 119.0490625 169 120 C169.86818359 121.10601562 169.86818359 121.10601562 170.75390625 122.234375 C172 124 172 124 172 126 C172.66 126 173.32 126 174 126 C175.33203125 127.50390625 175.33203125 127.50390625 176.8125 129.5625 C177.33714844 130.28824219 177.86179687 131.01398438 178.40234375 131.76171875 C178.92957031 132.50035156 179.45679688 133.23898438 180 134 C180.49628906 134.66644531 180.99257813 135.33289063 181.50390625 136.01953125 C185 140.75071225 185 140.75071225 185 143 C185.66 143 186.32 143 187 143 C191 147.47058824 191 147.47058824 191 150 C191.66 150 192.32 150 193 150 C194.7265625 152.1171875 194.7265625 152.1171875 196.625 154.875 C197.25664062 155.77992188 197.88828125 156.68484375 198.5390625 157.6171875 C200 160 200 160 200 162 C200.66 162 201.32 162 202 162 C203.5078125 163.6796875 203.5078125 163.6796875 205.125 165.875 C205.66382813 166.59429687 206.20265625 167.31359375 206.7578125 168.0546875 C208 170 208 170 208 172 C208.66 172 209.32 172 210 172 C210.99 174.475 210.99 174.475 212 177 C212.66 177 213.32 177 214 177 C215.2890625 178.4609375 215.2890625 178.4609375 216.625 180.375 C217.07101562 181.00148438 217.51703125 181.62796875 217.9765625 182.2734375 C219 184 219 184 219 186 C219.66 186 220.32 186 221 186 C221 186.66 221 187.32 221 188 C221.66 188 222.32 188 223 188 C224.33203125 189.7578125 224.33203125 189.7578125 225.8125 192.125 C227.6936509 195.05996517 229.5851372 197.80839827 231.875 200.4375 C234 203 234 203 234 205 C234.66 205 235.32 205 236 205 C237.7265625 207.1171875 237.7265625 207.1171875 239.625 209.875 C240.25664062 210.77992188 240.88828125 211.68484375 241.5390625 212.6171875 C243 215 243 215 243 217 C239.65750371 216.40312566 237.53563658 215.26396123 235 213 C235 212.34 235 211.68 235 211 C234.47148437 210.78085937 233.94296875 210.56171875 233.3984375 210.3359375 C230.1190056 208.50928325 227.43224659 206.08900417 224.625 203.625 C223.38156306 202.54681429 222.13807181 201.4686912 220.89453125 200.390625 C220.25596191 199.83439453 219.61739258 199.27816406 218.95947266 198.70507812 C215.75437261 195.91609 212.53429151 193.14466988 209.3125 190.375 C208.72484863 189.86662598 208.13719727 189.35825195 207.53173828 188.83447266 C205.08762633 186.73083401 202.68721406 184.79147604 200 183 C200 182.34 200 181.68 200 181 C199.34 181 198.68 181 198 181 C198 180.34 198 179.68 198 179 C197.44570313 178.75378906 196.89140625 178.50757813 196.3203125 178.25390625 C188.57694615 174.06935979 182.02872995 167.16833238 175.5546875 161.2734375 C170.47344369 156.75159668 165.24565495 152.28397941 159.6796875 148.3671875 C159.12539063 147.91601562 158.57109375 147.46484375 158 147 C158 146.34 158 145.68 158 145 C157.47277344 144.78214844 156.94554687 144.56429687 156.40234375 144.33984375 C153.09757271 142.49669502 150.39109929 140.04778851 147.5625 137.5625 C146.32198318 136.48525248 145.0810881 135.40844041 143.83984375 134.33203125 C142.89214111 133.50759521 142.89214111 133.50759521 141.92529297 132.66650391 C138.84694276 130.00193143 135.73672061 127.37544642 132.625 124.75 C132.05982666 124.27248291 131.49465332 123.79496582 130.91235352 123.30297852 C129.60861293 122.20153898 128.30436826 121.10069614 127 120 C124.29495126 125.27455037 121.88074224 130.55866676 119.6875 136.0625 C116.1267812 144.86261804 112.24616754 153.50766492 108 162 C105.33145944 161.66141098 104.2597933 161.31937257 102.53515625 159.19921875 C102.04917969 158.37035156 101.56320313 157.54148437 101.0625 156.6875 C100.44761719 155.67429687 99.83273438 154.66109375 99.19921875 153.6171875 C98.85165527 153.0406543 98.5040918 152.46412109 98.14599609 151.87011719 C95.96114513 148.3047234 93.66013607 144.81410867 91.375 141.3125 C90.83544678 140.48298828 90.29589355 139.65347656 89.73999023 138.79882812 C83.48240731 129.18489735 77.18039043 119.60004425 70.88256836 110.01245117 C65.55066421 101.89418748 60.234773 93.76591823 54.9375 85.625 C50.00871274 78.05099497 45.02571104 70.51592543 39.99829102 63.00708008 C36.85277973 58.30198891 33.78771324 53.55359254 30.76953125 48.765625 C26.28639775 41.75887331 21.60323091 34.8798153 16.96875 27.97265625 C12.94540577 21.96237358 8.95926231 15.92765808 5 9.875 C4.50636963 9.12750488 4.01273926 8.38000977 3.50415039 7.60986328 C3.04903076 6.91103027 2.59391113 6.21219727 2.125 5.4921875 C1.71507812 4.86683105 1.30515625 4.24147461 0.8828125 3.59716797 C0 2 0 2 0 0 Z " fill="#070501" transform="translate(134,104)"/>
<path d="M0 0 C4.24967 3.90633939 7.19057107 8.08521791 10.1875 13 C10.84395508 14.04800781 10.84395508 14.04800781 11.51367188 15.1171875 C16.00235948 22.38132316 16.00235948 22.38132316 17 26 C16.13110352 28.44628906 16.13110352 28.44628906 14.56640625 31.015625 C13.99937988 31.97662109 13.43235352 32.93761719 12.84814453 33.92773438 C11.93331299 35.44850586 11.93331299 35.44850586 11 37 C9.83488954 39.09477219 8.67743277 41.19381814 7.52734375 43.296875 C6.33139023 45.44828428 5.13477053 47.59932336 3.9375 49.75 C3.33873047 50.83410156 2.73996094 51.91820312 2.12304688 53.03515625 C-0.98481089 58.6109186 -4.18369394 63.88423489 -8 69 C-10.70712739 73.48076258 -11.77804522 76.74819478 -11 82 C-8.37092196 84.7006313 -6.72731067 85.8915258 -2.97145081 86.45169067 C-1.28317421 86.41977127 -1.28317421 86.41977127 0.43920898 86.38720703 C2.36161659 86.3683696 2.36161659 86.3683696 4.32286072 86.34915161 C5.0027046 86.33374454 5.68254848 86.31833748 6.3829937 86.30246353 C8.52358667 86.25723156 10.66243998 86.24221977 12.80348206 86.23605347 C18.886808 86.2151967 24.96878875 86.15655851 31.05102539 86.03808594 C34.779117 85.96760239 38.50489027 85.94600788 42.23359871 85.95479965 C43.64950978 85.94851521 45.06546894 85.92373756 46.48071098 85.87976456 C50.82792568 85.74750798 54.81492459 85.75852346 59 87 C61.98390845 89.97011083 63.64899003 93.02969236 65 97 C65 97.66 65 98.32 65 99 C65.66 99 66.32 99 67 99 C67.103125 98.319375 67.20625 97.63875 67.3125 96.9375 C68 94 68 94 71 87 C90.47 87 109.94 87 130 87 C130 87.66 130 88.32 130 89 C130.51949219 89.21140625 131.03898438 89.4228125 131.57421875 89.640625 C135.03443117 91.57968124 137.83853602 94.14181769 140.8125 96.75 C141.40353516 97.26304687 141.99457031 97.77609375 142.60351562 98.3046875 C143.79506982 99.33901371 144.98534391 100.3748165 146.17431641 101.41210938 C149.10175849 103.95825585 152.05068393 106.47925554 155 109 C151.74278187 112.90866176 148.96109791 114.02404631 144 115 C143.30648437 115.14308594 142.61296875 115.28617187 141.8984375 115.43359375 C138.03366047 115.87742857 135.81748082 115.57501892 132.58984375 113.3046875 C130.90635737 111.77327517 129.25748034 110.20316449 127.640625 108.6015625 C124.83382138 105.83627964 121.93997514 103.41305685 118.875 100.9375 C117.94429687 100.18339844 117.01359375 99.42929687 116.0546875 98.65234375 C115.37664062 98.10707031 114.69859375 97.56179688 114 97 C114.56267578 97.74443359 114.56267578 97.74443359 115.13671875 98.50390625 C116.20504277 99.9220593 117.26995062 101.34279014 118.33203125 102.765625 C119.38543631 104.17674372 120.44459462 105.58360224 121.51171875 106.984375 C125 111.6620702 125 111.6620702 125 115 C107.70129856 115.07020651 90.40264184 115.12304505 73.10383034 115.15543652 C65.07096202 115.17087889 57.03818244 115.19191786 49.00537109 115.22631836 C42.00068041 115.25630153 34.99605402 115.2755941 27.99130094 115.28226548 C24.28530436 115.28616271 20.57949165 115.29526625 16.87355423 115.31719017 C12.72763299 115.34151607 8.58202762 115.3419643 4.43603516 115.34057617 C3.21898895 115.351362 2.00194275 115.36214783 0.74801636 115.3732605 C-10.74141925 115.33174231 -20.60717771 113.01815139 -29.1328125 104.9921875 C-37.14768112 96.5041163 -39.98900462 88.16114312 -40.23046875 76.63671875 C-39.57113835 69.09353197 -37.38287105 63.11580009 -33.5625 56.625 C-32.90096924 55.46834839 -32.90096924 55.46834839 -32.22607422 54.28833008 C-30.82890863 51.85202566 -29.41544935 49.4257184 -28 47 C-27.10463712 45.44969875 -26.21009561 43.89892282 -25.31640625 42.34765625 C-23.50982075 39.21580302 -21.69474083 36.08906863 -19.875 32.96484375 C-17.83145296 29.44878237 -15.81477016 25.91863385 -13.8125 22.37890625 C-13.28060059 21.44022705 -12.74870117 20.50154785 -12.20068359 19.53442383 C-11.1796094 17.730062 -10.16151446 15.92400967 -9.14697266 14.1159668 C-6.35153203 9.18286455 -3.38303422 4.55171877 0 0 Z " fill="#040607" transform="translate(176,182)"/>
<path d="M0 0 C0 0.66 0 1.32 0 2 C0.66 2 1.32 2 2 2 C5.27345101 5.3643802 7.5292915 8.8149168 9.73828125 12.94921875 C13.08582231 19.16248121 16.50006551 25.33606357 19.9375 31.5 C20.51951172 32.55058594 21.10152344 33.60117188 21.70117188 34.68359375 C25.09168873 40.75873912 28.63029845 46.68589172 32.43017578 52.5144043 C34.5941168 55.94070033 36.49579189 59.4888374 38.41015625 63.05859375 C42.74398135 71.07670259 47.31366561 78.94712807 52.125 86.6875 C55.08901616 91.45997047 57.84785371 96.29494021 60.5 101.24609375 C62.69130478 105.26919237 65.02297883 109.20686748 67.34375 113.15625 C69.19827972 116.34044255 70.98046969 119.55890487 72.74609375 122.79296875 C74.12904252 125.22713091 75.6277874 127.57212482 77.125 129.9375 C83.15050894 140.01625078 84.59470269 150.51216308 82 162 C78.98482509 161.6964589 78.07042341 161.07962726 76.02734375 158.76953125 C75.33769531 157.79371094 74.64804687 156.81789063 73.9375 155.8125 C73.14886285 154.7175038 72.35841878 153.62380727 71.56640625 152.53125 C71.15148926 151.95503906 70.73657227 151.37882813 70.30908203 150.78515625 C68.07273594 147.73551757 65.72263173 144.77678332 63.375 141.8125 C62.43999066 140.62769374 61.50509208 139.44280005 60.5703125 138.2578125 C60.12977539 137.6999707 59.68923828 137.14212891 59.23535156 136.56738281 C56.47093983 133.05996714 53.73804692 129.52799689 51 126 C50.46246094 125.31035156 49.92492187 124.62070313 49.37109375 123.91015625 C46.41612511 120.11874637 43.47624387 116.31676715 40.55566406 112.4987793 C36.41510151 107.09051505 32.20741957 101.74425491 27.9375 96.4375 C25.95467102 93.96124091 23.97641308 91.48138144 22 89 C21.20464844 88.00355469 20.40929687 87.00710937 19.58984375 85.98046875 C12.02244178 76.22425915 6.0211113 65.57785614 0.140625 54.75 C-3.18174316 48.64160774 -6.59610286 42.59020034 -10.0625 36.5625 C-10.66126953 35.50095703 -11.26003906 34.43941406 -11.87695312 33.34570312 C-12.46541016 32.32541016 -13.05386719 31.30511719 -13.66015625 30.25390625 C-14.18230713 29.33939697 -14.70445801 28.4248877 -15.24243164 27.48266602 C-17.21403679 24.69766077 -19.17572628 22.9060862 -22 21 C-25.10293293 20.75322994 -25.10293293 20.75322994 -28 22 C-32.06287968 26.34009109 -34.74123623 31.59543516 -37.625 36.75 C-38.68397648 38.62421767 -39.74388779 40.49790742 -40.8046875 42.37109375 C-41.33545898 43.30937012 -41.86623047 44.24764648 -42.41308594 45.21435547 C-44.81881537 49.4373359 -47.27887297 53.62754135 -49.75 57.8125 C-50.18006348 58.54114258 -50.61012695 59.26978516 -51.05322266 60.02050781 C-52.03435255 61.68100628 -53.01698427 63.34061725 -54 65 C-58.28642324 63.33536962 -61.08617217 60.20924163 -64.25 57 C-64.80429688 56.4534375 -65.35859375 55.906875 -65.9296875 55.34375 C-70 51.2533867 -70 51.2533867 -70 49 C-70.66 49 -71.32 49 -72 49 C-74 46 -74 46 -73.81640625 43.67578125 C-72.87110269 40.57753753 -71.53292088 38.00494538 -69.9375 35.1875 C-69.38964844 34.21167969 -68.84179688 33.23585937 -68.27734375 32.23046875 C-67.64505859 31.12638672 -67.64505859 31.12638672 -67 30 C-63.60807637 30.59283621 -61.7892243 31.76743189 -59.25 34.0625 C-58.32960937 34.88427734 -58.32960937 34.88427734 -57.390625 35.72265625 C-56.93171875 36.14417969 -56.4728125 36.56570312 -56 37 C-56.97819024 35.68677212 -57.9575811 34.37443848 -58.9375 33.0625 C-59.48277344 32.33160156 -60.02804688 31.60070312 -60.58984375 30.84765625 C-61.86907938 29.0865547 -61.86907938 29.0865547 -63 28 C-63.59969116 23.36295146 -61.85531853 20.18925403 -59.5625 16.3125 C-59.20341553 15.69963135 -58.84433105 15.0867627 -58.47436523 14.45532227 C-52.62201475 4.77891379 -45.62117737 -3.49707754 -34.45703125 -6.73828125 C-21.65388166 -9.58557775 -11.00181482 -6.87273864 0 0 Z " fill="#040607" transform="translate(267,109)"/>
<path d="M0 0 C3.74959217 -0.14528105 7.49846105 -0.23406281 11.25 -0.3125 C12.84521484 -0.3753418 12.84521484 -0.3753418 14.47265625 -0.43945312 C22.38800648 -0.56390832 22.38800648 -0.56390832 25.734375 2.51953125 C26.15203125 3.33808594 26.5696875 4.15664063 27 5 C27.33 3.35 27.66 1.7 28 0 C31 0 34 0 37 0 C38.48959229 -0.04713135 38.48959229 -0.04713135 40.00927734 -0.09521484 C43.39833993 -0.19770404 46.78576853 -0.27253173 50.17578125 -0.32958984 C51.63860955 -0.35979478 53.10125627 -0.40076411 54.56347656 -0.45263672 C56.67557944 -0.52558294 58.78530366 -0.55946484 60.8984375 -0.5859375 C62.16349121 -0.6173584 63.42854492 -0.6487793 64.73193359 -0.68115234 C68 0 68 0 70.44384766 3.03662109 C70.95737793 4.01453613 71.4709082 4.99245117 72 6 C72.33 4.02 72.66 2.04 73 0 C97.09 0 121.18 0 146 0 C146.99 1.98 147.98 3.96 149 6 C149.33 4.02 149.66 2.04 150 0 C158.33333333 0 166.66666667 0 175 0 C175 2.31 175 4.62 175 7 C173.68 7.33 172.36 7.66 171 8 C172.65 8.33 174.3 8.66 176 9 C175.67 13.95 175.34 18.9 175 24 C161.47980769 24.37211538 161.47980769 24.37211538 159.05078125 22.48828125 C158.70402344 21.99714844 158.35726562 21.50601562 158 21 C157.67 21.99 157.34 22.98 157 24 C154.25 24.375 154.25 24.375 151 24 C148.625 21 148.625 21 147 18 C146.34 19.98 145.68 21.96 145 24 C141.52085059 24.02887814 138.04173169 24.04675687 134.5625 24.0625 C133.07266602 24.07506836 133.07266602 24.07506836 131.55273438 24.08789062 C130.13637695 24.09272461 130.13637695 24.09272461 128.69140625 24.09765625 C127.37958374 24.10551147 127.37958374 24.10551147 126.04125977 24.11352539 C124 24 124 24 123 23 C122.85884839 20.32941149 122.95752893 17.67567762 123 15 C121.68 15 120.36 15 119 15 C119 17.97 119 20.94 119 24 C112.68300369 24.17319875 106.36739213 24.30014213 100.04858398 24.38452148 C97.89990158 24.41969795 95.75138641 24.46744851 93.60327148 24.52807617 C90.51243863 24.61311874 87.42382151 24.65271588 84.33203125 24.68359375 C83.37351761 24.71972275 82.41500397 24.75585175 81.42744446 24.79307556 C74.8692676 24.79692587 74.8692676 24.79692587 72.24935913 22.39505005 C70.85424805 20.45727539 70.85424805 20.45727539 69 17 C68.67 19.31 68.34 21.62 68 24 C63.76417673 24.04938628 59.52850535 24.08571263 55.29248047 24.10986328 C53.85104453 24.11992963 52.40962905 24.1335838 50.96826172 24.15087891 C48.89806066 24.17510012 46.82812924 24.18647641 44.7578125 24.1953125 C42.88826904 24.21102295 42.88826904 24.21102295 40.98095703 24.22705078 C38 24 38 24 36 22 C35.67 22.66 35.34 23.32 35 24 C32.25 24.375 32.25 24.375 29 24 C25 19.15789474 25 19.15789474 25 16 C24.34 16 23.68 16 23 16 C23 18.64 23 21.28 23 24 C19.35418313 24.02887512 15.70839537 24.04675585 12.0625 24.0625 C10.50112305 24.07506836 10.50112305 24.07506836 8.90820312 24.08789062 C7.91884766 24.09111328 6.92949219 24.09433594 5.91015625 24.09765625 C4.53549194 24.10551147 4.53549194 24.10551147 3.13305664 24.11352539 C1 24 1 24 0 23 C-0.08713831 21.29227642 -0.10700007 19.58101351 -0.09765625 17.87109375 C-0.09443359 16.83662109 -0.09121094 15.80214844 -0.08789062 14.73632812 C-0.07951172 13.64771484 -0.07113281 12.55910156 -0.0625 11.4375 C-0.05798828 10.34501953 -0.05347656 9.25253906 -0.04882812 8.12695312 C-0.03699826 5.41791505 -0.02051543 2.70898401 0 0 Z M130 2 C131 4 131 4 131 4 Z M138 2 C139 5 139 5 139 5 Z M8 7 C8.33 7.66 8.66 8.32 9 9 C10.65 8.67 12.3 8.34 14 8 C14 7.67 14 7.34 14 7 C12.02 7 10.04 7 8 7 Z M15 7 C13.79438816 7.98267859 13.79438816 7.98267859 13.90234375 9.84765625 C13.91394531 10.57855469 13.92554688 11.30945313 13.9375 12.0625 C13.958125 13.361875 13.97875 14.66125 14 16 C14.66 16 15.32 16 16 16 C16 13.03 16 10.06 16 7 C15.67 7 15.34 7 15 7 Z M50 7 C51 9 51 9 51 9 Z M52 7 C53 9 53 9 53 9 Z M88 7 C88 7.33 88 7.66 88 8 C89.98 8 91.96 8 94 8 C94 7.67 94 7.34 94 7 C92.02 7 90.04 7 88 7 Z M95 7 C93.5216774 9.95664519 93.93967217 12.74229737 94 16 C94.66 16 95.32 16 96 16 C96 13.03 96 10.06 96 7 C95.67 7 95.34 7 95 7 Z M104 7 C104 7.33 104 7.66 104 8 C106.31 8 108.62 8 111 8 C111 10.31 111 12.62 111 15 C109.02 15.99 109.02 15.99 107 17 C108.65 17 110.3 17 112 17 C112 13.7 112 10.4 112 7 C109.36 7 106.72 7 104 7 Z M35 9 C36 13 36 13 36 13 Z M130 9 C130 10.98 130 12.96 130 15 C130.33 15 130.66 15 131 15 C131 13.02 131 11.04 131 9 C130.67 9 130.34 9 130 9 Z M88 15 C89.485 15.99 89.485 15.99 91 17 C91.99 16.67 92.98 16.34 94 16 C91.03 15.505 91.03 15.505 88 15 Z M138 18 C139 20 139 20 139 20 Z " fill="#030506" transform="translate(170,324)"/>
<path d="M0 0 C0 2.31 0 4.62 0 7 C-0.99 7.495 -0.99 7.495 -2 8 C-1.34 8.66 -0.68 9.32 0 10 C0.39764263 11.98821313 0.73775349 13.98944339 1 16 C3.31 16 5.62 16 8 16 C8.33 10.72 8.66 5.44 9 0 C10.65 -0.33 12.3 -0.66 14 -1 C15 0 15 0 15.09765625 3.59765625 C15.0909822 5.08596867 15.07902183 6.57426432 15.0625 8.0625 C15.05798828 8.82111328 15.05347656 9.57972656 15.04882812 10.36132812 C15.0370068 12.24091871 15.01907078 14.12046899 15 16 C19.95 16 24.9 16 30 16 C30.04898438 14.85660156 30.09796875 13.71320313 30.1484375 12.53515625 C30.22345189 11.04424527 30.29900028 9.55336108 30.375 8.0625 C30.4059375 7.30775391 30.436875 6.55300781 30.46875 5.77539062 C30.5726315 3.84492605 30.77895614 1.92057919 31 0 C33 -1 33 -1 35.375 -1 C39.39697735 0.53218185 40.13629262 3.20355905 42 7 C42.33 4.69 42.66 2.38 43 0 C45.31 0 47.62 0 50 0 C50.02887236 3.81248426 50.04675492 7.6249407 50.0625 11.4375 C50.07087891 12.52611328 50.07925781 13.61472656 50.08789062 14.73632812 C50.09111328 15.77080078 50.09433594 16.80527344 50.09765625 17.87109375 C50.10289307 18.82943115 50.10812988 19.78776855 50.11352539 20.77514648 C50 23 50 23 49 24 C46.75 24.4375 46.75 24.4375 44 24 C42.01550254 22.15533163 40.60970204 20.20759137 39 18 C38.67 19.98 38.34 21.96 38 24 C25.79 24 13.58 24 1 24 C0.67 23.34 0.34 22.68 0 22 C-0.66 22.66 -1.32 23.32 -2 24 C-4.56292317 24.17163731 -7.00345857 24.23264558 -9.5625 24.1875 C-10.26052734 24.18685547 -10.95855469 24.18621094 -11.67773438 24.18554688 C-16.85968842 24.14031158 -16.85968842 24.14031158 -18 23 C-18.1875 20.0625 -18.1875 20.0625 -18 17 C-17.34 16.34 -16.68 15.68 -16 15 C-16.66 14.01 -17.32 13.02 -18 12 C-18.265625 9.84375 -18.265625 9.84375 -18.25 7.5 C-18.25773437 6.33984375 -18.25773437 6.33984375 -18.265625 5.15625 C-18 3 -18 3 -16 0 C-4.29268293 -2.14634146 -4.29268293 -2.14634146 0 0 Z M23 19 C24 21 24 21 24 21 Z " fill="#030505" transform="translate(111,324)"/>
<path d="M0 0 C1.77049689 -0.05410687 3.54146849 -0.09284119 5.3125 -0.125 C6.29863281 -0.14820313 7.28476563 -0.17140625 8.30078125 -0.1953125 C11 0 11 0 14 2 C14 2.66 14 3.32 14 4 C14.86165771 3.94670532 14.86165771 3.94670532 15.74072266 3.89233398 C18.36844787 3.73375979 20.99666166 3.58554966 23.625 3.4375 C24.52863281 3.38142578 25.43226563 3.32535156 26.36328125 3.26757812 C31.08056217 3.00933282 35.34931647 2.95707263 40 4 C40.33 3.01 40.66 2.02 41 1 C43.0625 0.3125 43.0625 0.3125 45 0 C45.495 1.98 45.495 1.98 46 4 C47.258125 3.79375 48.51625 3.5875 49.8125 3.375 C53.4014758 2.78664331 53.75073878 2.83382585 57 5 C58.1446875 4.5359375 58.1446875 4.5359375 59.3125 4.0625 C62 3 62 3 68 4 C68 8.62 68 13.24 68 18 C63.64467851 20.17766075 62.53374042 20.03039555 58 19 C57.505 17.515 57.505 17.515 57 16 C52.47130179 14.9549158 48.72153664 15.14529113 44.18359375 15.7421875 C41.44461009 16.06557376 38.75465422 16.06718669 36 16 C35.34 16 34.68 16 34 16 C32.66216607 15.68521554 31.32796291 15.35412344 30 15 C29.505 12.525 29.505 12.525 29 10 C28.67 10 28.34 10 28 10 C27.67 11.98 27.34 13.96 27 16 C24.70839681 16.02692484 22.41670454 16.04636124 20.125 16.0625 C18.84882813 16.07410156 17.57265625 16.08570313 16.2578125 16.09765625 C13 16 13 16 11 15 C10.375 12.9375 10.375 12.9375 10 11 C9.34 12.65 8.68 14.3 8 16 C1.4 16 -5.2 16 -12 16 C-12.33 14.35 -12.66 12.7 -13 11 C-7.44860651 8.51648186 -2.83475015 9.14669662 3 10 C3.33 8.68 3.66 7.36 4 6 C2.68 6 1.36 6 0 6 C0 4.02 0 2.04 0 0 Z M9 6 C9.33 6.99 9.66 7.98 10 9 C10 8.01 10 7.02 10 6 C9.67 6 9.34 6 9 6 Z M16 7 C17 9 17 9 17 9 Z " fill="#050402" transform="translate(131,355)"/>
<path d="M0 0 C0.99 0.33 1.98 0.66 3 1 C3 1.66 3 2.32 3 3 C3.78375 3 4.5675 3 5.375 3 C8.91666667 3 12.45833333 3 16 3 C15.38602623 7.75829674 13.4893031 14.5106969 10 18 C8.00041636 18.04080783 5.99954746 18.04254356 4 18 C4 17.01 4 16.02 4 15 C3.22809326 15.00523682 2.45618652 15.01047363 1.66088867 15.01586914 C-1.83023263 15.03663242 -5.32134095 15.04965811 -8.8125 15.0625 C-10.63491211 15.07506836 -10.63491211 15.07506836 -12.49414062 15.08789062 C-14.23920898 15.09272461 -14.23920898 15.09272461 -16.01953125 15.09765625 C-17.09307861 15.10289307 -18.16662598 15.10812988 -19.27270508 15.11352539 C-22 15 -22 15 -25 14 C-25.969375 14.20625 -26.93875 14.4125 -27.9375 14.625 C-31 15 -31 15 -33.3125 13.75 C-35 12 -35 12 -36 9 C-36.66 10.98 -37.32 12.96 -38 15 C-39.32 14.67 -40.64 14.34 -42 14 C-42.19491452 12.54263913 -42.38069358 11.08405407 -42.5625 9.625 C-42.66691406 8.81289063 -42.77132813 8.00078125 -42.87890625 7.1640625 C-43 5 -43 5 -42 3 C-39.39576408 2.97302863 -36.79180756 2.95317511 -34.1875 2.9375 C-33.44951172 2.92912109 -32.71152344 2.92074219 -31.95117188 2.91210938 C-28.70077932 2.89740172 -26.10595105 2.96468298 -23 4 C-22.67 3.67 -22.34 3.34 -22 3 C-19.32941149 2.85884839 -16.67567762 2.95752893 -14 3 C-14 2.01 -14 1.02 -14 0 C-9.72726247 -2.13636877 -4.4606363 -1.28095666 0 0 Z M4 10 C4 10.99 4 11.98 4 13 C4.66 13 5.32 13 6 13 C5.67 12.01 5.34 11.02 5 10 C4.67 10 4.34 10 4 10 Z " fill="#050402" transform="translate(337,356)"/>
<path d="M0 0 C1.76279117 3.52558233 1.22713881 7.55395591 1.25 11.4375 C1.270625 12.30955078 1.29125 13.18160156 1.3125 14.08007812 C1.32023437 15.33788086 1.32023437 15.33788086 1.328125 16.62109375 C1.34214355 17.77242798 1.34214355 17.77242798 1.35644531 18.94702148 C0.90090225 21.57076232 0.1340106 22.44026006 -2 24 C-4.66893963 24.21876554 -7.03500287 24.28335295 -9.6875 24.1875 C-12.100625 24.125625 -14.51375 24.06375 -17 24 C-17 18.39 -17 12.78 -17 7 C-18.65 7 -20.3 7 -22 7 C-21.98839844 8.14339844 -21.97679687 9.28679687 -21.96484375 10.46484375 C-21.95546712 11.95572754 -21.94636679 13.44661309 -21.9375 14.9375 C-21.92912109 15.69224609 -21.92074219 16.44699219 -21.91210938 17.22460938 C-21.90347559 19.14994313 -21.94775667 21.07535581 -22 23 C-22.33 23.33 -22.66 23.66 -23 24 C-24.98 24 -26.96 24 -29 24 C-29 18.39 -29 12.78 -29 7 C-30.65 7 -32.3 7 -34 7 C-34.38133299 5.0085944 -34.71325582 3.00720923 -35 1 C-29.72606759 -4.27393241 -6.98151957 -1.05780599 0 0 Z M-10 7 C-10 9.97 -10 12.94 -10 16 C-8.68 16 -7.36 16 -6 16 C-6 13.36 -6 10.72 -6 8 C-7.32 7.67 -8.64 7.34 -10 7 Z " fill="#040506" transform="translate(400,324)"/>
<path d="M0 0 C1.67542976 0.28604898 3.34385343 0.61781233 5 1 C5.33 1.99 5.66 2.98 6 4 C7.97536745 3.65213292 7.97536745 3.65213292 10 3 C10.33 2.34 10.66 1.68 11 1 C12.65 1 14.3 1 16 1 C16.33 2.32 16.66 3.64 17 5 C17.33 4.67 17.66 4.34 18 4 C24.52542373 3.76271186 24.52542373 3.76271186 27 5 C28.11375 4.649375 29.2275 4.29875 30.375 3.9375 C34.41662787 2.89225141 34.61259155 3.19338216 38 5 C38.804375 4.67 39.60875 4.34 40.4375 4 C43 3 43 3 45.75 3.5625 C48 5 48 5 48.875 7.3125 C49.00534654 10.11495068 48.81979574 12.31703212 48 15 C44.73389423 16.63305288 41.14736773 16.14276152 37.5625 16.125 C36.39750977 16.13080078 36.39750977 16.13080078 35.20898438 16.13671875 C31.88918828 16.13099989 29.17006494 16.05668831 26 15 C23.66117862 15.29235267 21.32716 15.62599214 19 16 C18.01 16 17.02 16 16 16 C14.84371094 16.01160156 13.68742188 16.02320313 12.49609375 16.03515625 C11.14323026 16.04443151 9.79036562 16.05354063 8.4375 16.0625 C7.75236328 16.07087891 7.06722656 16.07925781 6.36132812 16.08789062 C1.22617529 16.11308765 1.22617529 16.11308765 -1 15 C-1.02685412 12.68756208 -1.04632841 10.3750373 -1.0625 8.0625 C-1.07410156 6.77472656 -1.08570313 5.48695313 -1.09765625 4.16015625 C-1 1 -1 1 0 0 Z " fill="#050402" transform="translate(204,355)"/>
<path d="M0 0 C1.67542976 0.28604898 3.34385343 0.61781233 5 1 C5 1.99 5 2.98 5 4 C6.093125 3.835 7.18625 3.67 8.3125 3.5 C12 3 12 3 15 3 C15.33 2.34 15.66 1.68 16 1 C17.65 1 19.3 1 21 1 C21 1.99 21 2.98 21 4 C21.68707031 3.96519531 22.37414062 3.93039062 23.08203125 3.89453125 C23.98308594 3.86746094 24.88414062 3.84039062 25.8125 3.8125 C27.15248047 3.76029297 27.15248047 3.76029297 28.51953125 3.70703125 C31 4 31 4 32.8125 5.28125 C34.71849898 8.03993273 34.18355742 10.7571522 34 14 C30.7396882 15.93773248 28.27138064 16.27072187 24.5 16.25 C23.5615625 16.25515625 22.623125 16.2603125 21.65625 16.265625 C18.95952324 15.99595232 17.31050707 15.3732259 15 14 C15 14.66 15 15.32 15 16 C10.05 16 5.1 16 0 16 C-0.74240449 12.28797754 -1.13606935 9.44716245 -1.125 5.75 C-1.12757813 4.87859375 -1.13015625 4.0071875 -1.1328125 3.109375 C-1 1 -1 1 0 0 Z M27 9 C28 11 28 11 28 11 Z " fill="#050402" transform="translate(257,355)"/>
<path d="M0 0 C1.8065027 3.11153475 1.21114807 5.67476004 0.85546875 9.19921875 C0.73558594 10.47152344 0.61570312 11.74382812 0.4921875 13.0546875 C0.38519531 14.03050781 0.27820313 15.00632812 0.16796875 16.01171875 C1.46734375 15.99109375 2.76671875 15.97046875 4.10546875 15.94921875 C5.45962508 15.92772421 6.81552958 15.94023676 8.16796875 16.01171875 C9.16796875 17.01171875 9.16796875 17.01171875 9.29296875 20.01171875 C9.16796875 23.01171875 9.16796875 23.01171875 8.16796875 24.01171875 C5.63519225 24.08492038 3.13692957 24.10399444 0.60546875 24.07421875 C-1.84890625 24.05359375 -4.30328125 24.03296875 -6.83203125 24.01171875 C-6.83203125 16.09171875 -6.83203125 8.17171875 -6.83203125 0.01171875 C-1.83203125 -0.98828125 -1.83203125 -0.98828125 0 0 Z " fill="#030505" transform="translate(360.83203125,323.98828125)"/>
<path d="" fill="#000000" transform="translate(0,0)"/>
<path d="" fill="#000000" transform="translate(0,0)"/>
<path d="" fill="#000000" transform="translate(0,0)"/>
<path d="" fill="#000000" transform="translate(0,0)"/>
<path d="" fill="#000000" transform="translate(0,0)"/>
<path d="" fill="#000000" transform="translate(0,0)"/>
<path d="" fill="#000000" transform="translate(0,0)"/>
<path d="" fill="#000000" transform="translate(0,0)"/>
<path d="" fill="#000000" transform="translate(0,0)"/>
<path d="" fill="#000000" transform="translate(0,0)"/>
<path d="" fill="#000000" transform="translate(0,0)"/>
<path d="" fill="#000000" transform="translate(0,0)"/>
<path d="" fill="#000000" transform="translate(0,0)"/>
<path d="" fill="#000000" transform="translate(0,0)"/>
<path d="" fill="#000000" transform="translate(0,0)"/>
<path d="" fill="#000000" transform="translate(0,0)"/>
<path d="" fill="#000000" transform="translate(0,0)"/>
<path d="" fill="#000000" transform="translate(0,0)"/>
<path d="" fill="#000000" transform="translate(0,0)"/>
<path d="" fill="#000000" transform="translate(0,0)"/>
<path d="" fill="#000000" transform="translate(0,0)"/>
<path d="" fill="#000000" transform="translate(0,0)"/>
<path d="" fill="#000000" transform="translate(0,0)"/>
<path d="" fill="#000000" transform="translate(0,0)"/>
<path d="" fill="#000000" transform="translate(0,0)"/>
<path d="" fill="#000000" transform="translate(0,0)"/>
<path d="" fill="#000000" transform="translate(0,0)"/>
<path d="" fill="#000000" transform="translate(0,0)"/>
<path d="" fill="#000000" transform="translate(0,0)"/>
<path d="" fill="#000000" transform="translate(0,0)"/>
<path d="" fill="#000000" transform="translate(0,0)"/>
<path d="" fill="#000000" transform="translate(0,0)"/>
<path d="" fill="#000000" transform="translate(0,0)"/>
<path d="" fill="#000000" transform="translate(0,0)"/>
<path d="" fill="#000000" transform="translate(0,0)"/>
<path d="" fill="#000000" transform="translate(0,0)"/>
<path d="" fill="#000000" transform="translate(0,0)"/>
<path d="" fill="#000000" transform="translate(0,0)"/>
<path d="" fill="#000000" transform="translate(0,0)"/>
<path d="" fill="#000000" transform="translate(0,0)"/>
<path d="" fill="#000000" transform="translate(0,0)"/>
<path d="" fill="#000000" transform="translate(0,0)"/>
<path d="" fill="#000000" transform="translate(0,0)"/>
<path d="" fill="#000000" transform="translate(0,0)"/>
<path d="" fill="#000000" transform="translate(0,0)"/>
<path d="" fill="#000000" transform="translate(0,0)"/>
<path d="" fill="#000000" transform="translate(0,0)"/>
<path d="" fill="#000000" transform="translate(0,0)"/>
<path d="" fill="#000000" transform="translate(0,0)"/>
<path d="" fill="#000000" transform="translate(0,0)"/>
<path d="" fill="#000000" transform="translate(0,0)"/>
<path d="" fill="#000000" transform="translate(0,0)"/>
<path d="" fill="#000000" transform="translate(0,0)"/>
<path d="" fill="#000000" transform="translate(0,0)"/>
<path d="" fill="#000000" transform="translate(0,0)"/>
<path d="" fill="#000000" transform="translate(0,0)"/>
<path d="" fill="#000000" transform="translate(0,0)"/>
<path d="" fill="#000000" transform="translate(0,0)"/>
<path d="" fill="#000000" transform="translate(0,0)"/>
<path d="" fill="#000000" transform="translate(0,0)"/>
<path d="" fill="#000000" transform="translate(0,0)"/>
<path d="" fill="#000000" transform="translate(0,0)"/>
<path d="" fill="#000000" transform="translate(0,0)"/>
<path d="" fill="#000000" transform="translate(0,0)"/>
<path d="" fill="#000000" transform="translate(0,0)"/>
<path d="" fill="#000000" transform="translate(0,0)"/>
<path d="" fill="#000000" transform="translate(0,0)"/>
<path d="" fill="#000000" transform="translate(0,0)"/>
<path d="" fill="#000000" transform="translate(0,0)"/>
<path d="" fill="#000000" transform="translate(0,0)"/>
<path d="" fill="#000000" transform="translate(0,0)"/>
<path d="" fill="#000000" transform="translate(0,0)"/>
<path d="" fill="#000000" transform="translate(0,0)"/>
<path d="" fill="#000000" transform="translate(0,0)"/>
</svg>
