<?xml version="1.0" standalone="no"?>
<!DOCTYPE svg PUBLIC "-//W3C//DTD SVG 20010904//EN"
 "http://www.w3.org/TR/2001/REC-SVG-20010904/DTD/svg10.dtd">
<svg version="1.0" xmlns="http://www.w3.org/2000/svg"
 width="1411.000000pt" height="1411.000000pt" viewBox="0 0 1411.000000 1411.000000"
 preserveAspectRatio="xMidYMid meet">
<metadata>
Created by potrace 1.14, written by Peter Selinger 2001-2017
</metadata>
<g transform="translate(0.000000,1411.000000) scale(0.100000,-0.100000)"
fill="#000000" stroke="none">
<path d="M6775 13384 c-340 -42 -644 -195 -877 -442 -116 -123 -120 -130 -441
-672 -116 -195 -253 -427 -305 -515 -52 -88 -102 -173 -112 -190 -17 -29 -206
-348 -515 -870 -233 -393 -496 -837 -515 -870 -20 -36 -166 -283 -179 -305
-37 -61 -234 -394 -254 -430 -14 -25 -82 -146 -152 -270 -70 -124 -140 -247
-155 -275 -57 -103 -84 -153 -140 -250 -31 -55 -68 -120 -82 -145 -14 -25 -75
-133 -135 -240 -61 -107 -143 -253 -183 -325 -40 -71 -181 -321 -313 -555
-132 -234 -255 -454 -275 -490 -19 -36 -38 -69 -42 -75 -6 -8 -270 -475 -355
-630 -16 -27 -57 -102 -93 -165 -168 -296 -226 -496 -227 -780 0 -153 9 -234
40 -358 140 -554 592 -986 1135 -1085 163 -30 41 -27 1545 -42 330 -4 742 -8
915 -10 1952 -23 1803 -23 3825 0 187 2 590 6 895 10 305 3 731 8 945 10 425
5 476 8 611 35 373 77 705 305 923 635 33 50 140 261 145 287 2 7 6 20 9 28
77 201 102 492 62 720 -37 212 -83 325 -275 666 -134 237 -169 299 -249 443
-29 52 -64 111 -77 132 -13 21 -24 41 -24 43 0 2 -22 43 -50 91 -27 48 -50 88
-50 89 0 2 -47 86 -105 186 -58 101 -105 185 -105 187 0 3 -237 423 -250 443
-6 8 -13 22 -17 30 -4 8 -26 48 -50 88 -24 41 -43 75 -43 77 0 1 -37 67 -82
146 -44 79 -92 164 -106 189 -14 25 -53 95 -87 155 -34 61 -76 135 -92 165
-17 30 -48 84 -68 120 -21 36 -51 90 -68 120 -17 30 -58 105 -92 165 -34 61
-73 130 -87 155 -134 240 -232 407 -453 780 -142 239 -267 451 -277 470 -11
19 -69 116 -128 215 -154 259 -343 577 -356 600 -43 76 -500 851 -529 895 -21
33 -127 213 -151 255 -6 11 -84 144 -174 295 -166 281 -173 292 -224 377 -109
180 -278 354 -454 468 -104 67 -282 148 -372 170 -8 3 -39 11 -69 19 -30 8
-77 18 -105 21 -28 3 -59 9 -69 11 -38 11 -266 10 -362 -2z m355 -1460 c131
-38 263 -134 337 -244 17 -25 91 -146 164 -270 72 -124 195 -332 273 -463 78
-131 149 -252 160 -270 81 -140 282 -477 297 -499 10 -15 19 -30 19 -32 0 -3
33 -61 74 -128 70 -119 234 -394 481 -813 65 -110 168 -283 228 -385 60 -102
117 -198 127 -215 9 -16 64 -113 122 -215 107 -189 138 -243 191 -340 17 -30
52 -93 79 -139 26 -46 48 -85 48 -87 0 -1 27 -48 60 -104 33 -56 60 -103 60
-105 0 -3 24 -46 53 -97 30 -51 80 -140 112 -198 84 -151 80 -143 225 -400 73
-129 144 -255 158 -280 14 -25 53 -94 87 -155 34 -60 73 -130 87 -155 14 -25
95 -169 180 -320 85 -151 166 -295 180 -320 14 -25 53 -94 87 -155 66 -116
107 -208 119 -265 12 -59 7 -222 -7 -275 -64 -230 -234 -398 -459 -451 -83
-20 -103 -21 -1997 -39 -187 -2 -603 -6 -925 -10 -830 -9 -1010 -9 -2555 10
-165 2 -595 7 -955 10 -998 9 -989 8 -1125 75 -203 99 -331 295 -343 523 -9
170 10 222 197 550 35 62 248 440 308 547 11 19 134 238 273 485 139 248 267
475 283 505 16 30 33 60 37 65 4 6 39 66 77 135 39 69 180 321 315 560 135
239 259 460 275 490 17 30 104 179 193 330 90 151 171 289 180 305 10 17 59
100 110 185 51 85 101 169 110 185 22 37 307 520 329 557 9 14 32 52 51 85 19
32 41 70 50 84 8 14 42 72 75 128 33 57 69 118 80 136 11 18 112 188 225 379
113 190 234 394 269 454 35 59 72 122 82 140 123 213 185 306 243 360 91 84
184 133 301 158 75 15 223 10 295 -12z"/>
<path d="M7813 10843 c-40 -37 -271 -256 -383 -363 -51 -49 -262 -249 -389
-368 -25 -24 -113 -107 -195 -185 -82 -78 -162 -153 -176 -167 -15 -14 -69
-65 -121 -115 -112 -107 -419 -398 -470 -446 -58 -54 -273 -258 -353 -334 -40
-38 -140 -133 -221 -210 -81 -77 -169 -160 -195 -185 -26 -25 -119 -112 -206
-195 -307 -291 -354 -339 -345 -344 8 -5 1031 -7 1079 -2 9 1 173 140 212 181
3 3 25 23 50 44 45 40 190 168 220 196 9 8 54 49 100 90 47 41 90 80 96 85
142 128 174 159 174 166 0 5 -55 10 -123 11 l-123 3 95 145 c53 80 155 235
227 345 72 110 193 295 269 410 146 222 293 446 433 660 47 72 154 234 237
360 83 127 155 236 159 243 14 24 -10 12 -51 -25z"/>
<path d="M7093 8687 c-11 -7 -63 -50 -114 -97 -124 -114 -125 -114 -219 -200
-46 -41 -93 -83 -104 -93 -12 -10 -37 -33 -56 -51 -30 -27 -133 -121 -299
-271 -25 -22 -52 -47 -61 -55 -13 -12 -80 -73 -216 -195 -6 -5 -51 -47 -100
-91 -49 -45 -101 -92 -115 -105 -14 -13 -63 -58 -109 -99 -46 -41 -88 -80 -94
-85 -6 -6 -87 -80 -181 -165 -93 -85 -187 -170 -208 -190 -21 -19 -45 -39 -53
-43 -8 -5 -12 -12 -9 -17 8 -12 1026 -13 1057 -1 13 5 35 19 49 32 14 13 61
56 104 94 43 39 105 95 137 125 33 30 69 62 81 73 12 10 36 31 52 46 33 30 99
89 225 201 46 41 134 120 194 174 121 109 262 235 280 251 82 72 119 106 161
144 28 25 86 78 130 116 43 39 86 77 95 85 9 8 52 47 95 85 44 39 102 90 129
115 28 25 55 50 62 55 136 123 174 159 174 166 0 15 -1061 11 -1087 -4z"/>
<path d="M7482 7686 c-17 -9 -185 -157 -286 -251 -23 -22 -307 -279 -338 -306
-10 -9 -57 -52 -104 -95 -48 -44 -91 -80 -95 -82 -5 -2 -9 -10 -9 -18 0 -11
22 -14 111 -14 86 0 110 -3 106 -13 -4 -11 -79 -127 -329 -507 -52 -80 -142
-217 -200 -305 -104 -158 -227 -345 -463 -705 -67 -102 -152 -232 -190 -290
-37 -58 -103 -158 -147 -223 -43 -65 -78 -120 -78 -122 0 -12 21 -3 43 18 24
22 305 288 377 357 67 64 354 337 395 375 22 20 105 99 185 175 80 76 165 157
190 180 25 23 113 106 195 185 83 78 169 160 191 181 36 33 186 176 374 354
109 103 342 325 373 354 18 17 105 99 192 183 88 83 180 171 205 194 25 23
116 110 203 192 86 82 165 156 175 163 9 7 13 16 9 21 -12 11 -1064 11 -1085
-1z"/>
<path d="M60 2629 l-52 -50 0 -115 -1 -115 51 -52 51 -52 146 1 c124 1 148 -1
165 -16 25 -22 26 -51 2 -80 -18 -22 -24 -23 -205 -23 -209 0 -193 7 -203 -86
-4 -44 -3 -59 8 -63 7 -2 120 -4 250 -4 l237 1 53 51 53 52 -2 112 -2 111 -48
49 -48 50 -151 0 c-133 0 -153 2 -167 18 -22 24 -21 54 2 83 19 23 22 24 200
24 106 0 184 4 190 10 6 6 12 39 13 75 l3 65 -247 2 -247 1 -51 -49z"/>
<path d="M1223 2668 c-8 -15 -8 -677 1 -686 13 -12 526 -9 537 4 5 6 11 40 12
75 l2 64 -175 2 c-96 1 -183 2 -192 2 -15 1 -17 24 -16 265 0 145 -3 269 -6
275 -9 14 -154 13 -163 -1z"/>
<path d="M2343 2668 c-10 -15 -12 -666 -1 -683 5 -9 120 -13 161 -6 4 0 7 97
7 214 l0 212 36 -40 c20 -22 63 -71 97 -109 78 -88 149 -166 209 -231 l46 -50
64 1 c34 1 69 2 76 3 10 1 12 74 10 349 l-3 347 -75 1 c-41 1 -80 -3 -86 -8
-8 -5 -12 -62 -12 -166 0 -86 -1 -178 -1 -204 l-1 -48 -122 138 c-68 75 -125
139 -128 142 -3 3 -33 37 -68 76 l-62 71 -68 2 c-47 1 -72 -2 -79 -11z"/>
<path d="M3544 2668 c-9 -14 -9 -677 0 -685 9 -9 563 -11 578 -2 7 5 8 25 4
60 -12 91 -2 87 -198 87 -95 0 -183 1 -195 1 -21 1 -23 6 -23 61 l0 60 154 0
c86 0 157 4 161 9 5 10 17 78 19 116 1 19 -6 20 -166 23 l-168 2 0 60 c0 33 3
61 8 61 4 1 91 2 194 3 110 1 191 5 197 11 6 6 12 39 13 75 l3 65 -287 2
c-181 1 -290 -3 -294 -9z"/>
<path d="M4316 2672 c-9 -8 -7 -692 2 -693 44 -6 154 -3 159 5 4 5 6 102 6
214 l0 205 29 -34 c17 -19 44 -50 61 -69 18 -19 79 -89 137 -155 58 -66 114
-130 126 -143 17 -20 33 -24 87 -26 36 -2 70 0 76 4 8 4 10 108 9 351 l-3 344
-74 2 c-41 1 -79 -1 -85 -6 -7 -6 -11 -79 -10 -215 l1 -206 -26 28 c-14 15
-53 59 -86 97 -33 39 -62 72 -65 75 -3 3 -50 56 -104 117 l-99 113 -68 -1
c-37 -1 -70 -4 -73 -7z"/>
<path d="M5239 2626 l-52 -51 1 -253 1 -252 50 -48 51 -47 230 0 229 0 50 49
50 49 0 133 c0 91 -4 135 -12 141 -16 13 -284 10 -296 -2 -5 -6 -12 -24 -14
-42 -3 -17 -8 -36 -11 -42 -11 -17 15 -25 88 -26 l70 -1 1 -33 c2 -63 -17 -73
-135 -73 -146 0 -147 0 -164 18 -24 24 -23 338 0 362 14 13 40 16 138 17 106
1 124 -1 143 -18 12 -10 19 -25 16 -33 -11 -28 16 -41 85 -42 37 0 73 4 80 10
7 6 12 35 12 72 0 61 0 62 -52 114 l-53 51 -228 0 -227 -1 -51 -52z"/>
<path d="M6032 2666 c-10 -14 -10 -672 1 -682 4 -4 39 -8 78 -9 54 -1 72 2 79
14 8 17 12 643 3 674 -4 14 -16 17 -78 16 -43 -1 -78 -6 -83 -13z"/>
<path d="M6382 2666 c-9 -15 -10 -657 -1 -676 6 -12 24 -16 76 -15 37 0 74 4
80 8 9 5 12 38 12 100 0 51 0 143 0 204 l1 113 73 -83 c40 -45 121 -137 180
-204 60 -67 113 -126 119 -129 19 -12 139 -11 146 0 11 17 10 669 -1 684 -6 8
-32 12 -71 11 -101 -2 -93 18 -92 -214 1 -113 -2 -205 -5 -205 -4 0 -37 35
-75 77 -38 43 -83 94 -101 113 -17 19 -42 48 -54 64 -12 16 -32 38 -43 50 -12
12 -40 43 -64 69 l-43 47 -65 -1 c-35 -1 -68 -7 -72 -13z"/>
<path d="M7261 2666 c-15 -18 -13 -673 2 -683 6 -4 137 -8 290 -8 275 0 311 4
293 33 -2 4 -7 30 -11 57 -3 27 -10 52 -16 56 -6 3 -93 6 -193 6 -100 0 -187
2 -193 6 -5 3 -9 30 -9 59 l1 53 157 3 157 3 7 37 c4 20 8 53 8 72 l1 35 -162
3 c-90 1 -164 6 -164 10 -7 34 -3 112 6 115 5 2 95 3 198 3 l188 -1 9 36 c16
59 18 98 6 108 -17 15 -563 12 -575 -3z"/>
<path d="M8033 2667 c-11 -15 -11 -672 0 -684 11 -10 559 -12 573 -1 12 8 8
87 -7 124 -7 21 -13 22 -191 22 -101 0 -190 1 -198 1 -12 1 -15 14 -15 59 l0
57 157 3 158 3 6 25 c4 14 7 46 8 72 l1 47 -165 5 -164 5 -1 53 c0 29 2 56 5
60 3 5 92 8 199 7 l195 0 7 29 c5 17 10 50 11 75 l3 46 -287 2 c-215 2 -288
-1 -295 -10z"/>
<path d="M8803 2667 c-10 -16 -12 -657 -2 -677 6 -12 24 -16 76 -15 37 0 73 3
79 7 8 5 12 47 12 119 0 61 3 113 5 116 3 3 65 5 138 5 173 1 175 -1 174 -131
0 -50 2 -97 6 -103 12 -19 149 -18 158 2 4 8 7 58 6 111 l-1 97 -48 47 c-54
52 -55 44 20 123 30 31 31 34 29 123 l-2 90 -48 49 -48 49 -273 0 c-199 0
-276 -4 -281 -12z m464 -160 c14 -12 19 -29 18 -57 -2 -68 -15 -74 -171 -75
-77 0 -138 3 -141 9 -4 5 -6 24 -5 43 0 18 1 48 1 66 l1 33 139 -1 c117 -1
143 -3 158 -18z"/>
<path d="M9642 2667 c-15 -18 -14 -675 1 -684 18 -12 147 -10 155 2 10 15 10
668 0 682 -12 16 -143 16 -156 0z"/>
<path d="M9986 2663 c-6 -21 -6 -651 0 -673 3 -13 19 -16 77 -15 39 0 77 3 82
7 7 4 10 83 10 213 l-1 207 41 -44 c22 -24 69 -77 105 -118 36 -41 101 -115
144 -165 44 -49 81 -92 83 -94 6 -9 144 -7 150 2 9 14 10 654 1 678 -7 17 -16
20 -70 19 -107 -3 -98 18 -98 -221 l0 -209 -47 53 c-48 53 -152 172 -186 211
-10 12 -48 54 -84 94 l-65 72 -68 0 c-57 0 -70 -3 -74 -17z"/>
<path d="M10911 2626 l-51 -52 0 -250 0 -250 50 -49 51 -50 227 -1 227 0 53
50 52 50 0 138 c0 76 -3 139 -7 139 -32 5 -287 3 -295 -3 -7 -3 -13 -15 -14
-25 -2 -10 -6 -33 -9 -50 -3 -18 -2 -34 2 -34 4 -1 40 -2 78 -3 l70 -1 3 -36
c2 -25 -3 -40 -18 -54 -17 -16 -37 -18 -141 -18 -165 1 -158 -9 -156 200 1
209 -7 199 154 198 132 0 159 -10 165 -60 l3 -30 80 0 80 0 3 71 3 72 -52 51
-53 50 -227 0 -227 -1 -51 -52z"/>
<path d="M12002 2661 c-9 -25 -7 -669 2 -678 12 -12 506 -10 523 2 10 7 15 32
16 75 l2 65 -185 1 -185 1 -5 274 -5 274 -78 3 c-69 3 -78 1 -85 -17z"/>
<path d="M12682 2671 c-15 -9 1 -150 18 -161 5 -3 52 -6 105 -5 l95 1 0 -263
c0 -203 3 -263 13 -264 70 -7 150 -3 154 8 3 7 6 127 7 265 l1 253 99 0 c114
0 113 -1 118 107 l3 63 -301 2 c-165 0 -306 -2 -312 -6z"/>
<path d="M13460 2670 c-10 -6 -12 -82 -12 -344 0 -185 3 -340 6 -344 4 -4 131
-7 282 -7 l274 0 49 50 48 50 0 249 0 250 -49 52 -49 52 -268 0 c-147 0 -274
-3 -281 -8z m457 -163 c15 -15 18 -39 18 -183 0 -142 -2 -167 -16 -180 -15
-14 -136 -20 -276 -15 l-23 1 0 193 c0 107 2 196 5 198 2 3 65 4 139 4 115 0
138 -3 153 -18z"/>
<path d="M809 2163 c-5 -33 -3 -166 3 -175 4 -8 39 -12 93 -13 69 -1 88 2 94
14 6 13 8 139 2 174 0 4 -44 7 -96 7 -52 0 -96 -3 -96 -7z"/>
<path d="M1999 2163 c-7 -45 -2 -176 6 -182 12 -9 166 -8 181 1 9 6 12 104 5
176 -1 9 -27 12 -96 12 -52 0 -95 -3 -96 -7z"/>
<path d="M5946 1452 c-2 -4 -3 -49 -3 -99 0 -51 -4 -92 -9 -91 -5 0 -22 7 -39
14 -51 21 -128 1 -166 -42 -76 -86 -68 -257 13 -315 43 -31 113 -36 161 -11
29 16 37 17 37 6 0 -11 18 -14 80 -14 l80 0 0 279 0 280 -75 0 c-41 0 -76 -3
-79 -7z m-30 -290 c31 -21 38 -87 14 -132 -14 -26 -66 -27 -79 -2 -8 16 -15
61 -12 90 1 16 38 52 54 52 6 0 17 -4 23 -8z"/>
<path d="M10669 1457 c-1 -1 -2 -127 -3 -279 l-1 -278 80 0 80 0 0 278 0 277
-78 2 c-42 1 -78 1 -78 0z"/>
<path d="M4055 1425 c-33 -32 -32 -70 1 -100 67 -62 185 8 144 85 -24 45 -107
54 -145 15z"/>
<path d="M10916 1429 c-19 -15 -26 -30 -26 -53 0 -42 26 -66 79 -73 35 -5 44
-2 69 24 24 23 28 35 24 61 -8 58 -94 82 -146 41z"/>
<path d="M2270 1364 l0 -64 74 0 73 0 1 -187 c0 -104 1 -194 1 -200 1 -9 24
-13 81 -13 l80 0 0 200 0 200 75 0 75 0 0 59 c0 48 -3 61 -17 64 -10 3 -114 5
-230 5 l-213 -1 0 -63z"/>
<path d="M5449 1426 c-1 -1 -2 -119 -3 -263 l-1 -263 80 0 80 0 0 260 c0 223
-2 261 -15 265 -12 3 -136 4 -141 1z"/>
<path d="M7600 1164 l0 -264 80 0 80 0 -2 263 -3 262 -77 1 -78 1 0 -263z"/>
<path d="M9329 1377 c0 -74 0 -450 0 -464 1 -9 24 -13 80 -13 l80 0 0 68 c0
106 0 112 14 112 24 0 46 -34 71 -106 l23 -69 91 -3 c51 -1 92 -1 92 1 0 4
-22 61 -39 102 -35 81 -46 98 -73 115 l-31 19 26 6 c33 9 87 68 88 98 6 90
-13 130 -77 161 -32 15 -68 19 -191 22 l-153 4 -1 -53z m231 -72 c19 -12 28
-48 17 -70 -14 -27 -27 -35 -59 -35 -27 0 -28 1 -28 59 0 58 0 59 29 56 16 -1
34 -6 41 -10z"/>
<path d="M8413 1369 c-61 -20 -63 -22 -63 -55 0 -31 -3 -34 -30 -34 l-30 0 0
-61 c0 -50 3 -60 15 -55 36 14 45 -3 44 -87 -1 -92 7 -121 46 -157 22 -21 37
-25 94 -27 37 -1 73 2 80 7 12 7 15 31 12 96 -1 17 -6 20 -30 16 -44 -6 -53
26 -42 145 1 7 13 11 32 8 33 -4 42 7 41 53 0 62 0 62 -40 62 l-38 0 0 52 c1
63 -4 65 -91 37z"/>
<path d="M11285 1385 c-5 -2 -36 -11 -67 -20 -56 -16 -58 -18 -58 -51 0 -31
-2 -34 -30 -34 -30 0 -30 0 -30 -59 0 -57 1 -58 28 -57 l27 1 5 -95 c7 -138
31 -169 133 -177 87 -7 103 3 102 64 0 47 -1 48 -33 51 -39 4 -43 12 -46 87
-2 62 6 74 46 70 29 -4 35 5 33 53 0 17 2 32 6 32 4 0 19 -30 34 -67 15 -38
33 -81 40 -98 76 -176 79 -184 67 -209 -14 -31 -55 -43 -94 -28 l-29 11 3 -62
3 -61 39 -9 c59 -14 136 6 173 46 37 38 56 75 87 165 13 37 44 125 70 196 25
70 46 132 46 136 0 4 -34 7 -75 7 l-75 1 -10 -37 c-5 -20 -18 -72 -29 -116
-20 -85 -22 -85 -46 15 -9 36 -21 82 -26 103 l-10 38 -82 -2 c-45 -2 -85 -7
-89 -13 -5 -7 -8 -7 -8 2 0 7 -14 12 -37 12 l-38 0 1 55 c2 53 -3 60 -31 50z"/>
<path d="M3812 1279 c-18 -4 -44 -17 -58 -30 l-24 -22 0 25 c0 25 -1 26 -80
27 l-80 1 0 -190 0 -190 80 0 80 0 0 118 c1 120 10 152 42 152 33 0 40 -27 39
-150 l0 -121 81 3 81 3 -1 132 c0 159 -5 183 -40 216 -30 28 -70 37 -120 26z"/>
<path d="M4506 1279 c-16 -4 -39 -18 -52 -30 l-24 -22 0 27 0 27 -80 -2 -80
-2 0 -188 0 -189 80 0 80 0 0 119 c0 95 3 123 16 135 20 20 38 20 55 0 9 -11
13 -52 13 -135 l1 -119 78 0 77 0 1 43 c5 232 -2 277 -48 319 -22 20 -77 28
-117 17z"/>
<path d="M4855 1281 c-64 -20 -111 -71 -123 -134 -25 -140 25 -240 126 -254
51 -7 81 0 110 27 l22 21 0 -24 c0 -29 -28 -63 -61 -75 -29 -11 -101 -7 -128
8 -11 5 -24 10 -29 10 -13 0 -8 -108 6 -122 8 -8 44 -13 105 -12 142 1 218 44
253 142 9 25 13 96 14 225 l0 188 -81 -2 c-72 -2 -80 -4 -76 -20 5 -17 3 -17
-22 1 -28 21 -83 31 -116 21z m122 -134 c19 -21 21 -83 4 -116 -13 -24 -62
-29 -79 -8 -20 24 -20 84 -1 116 20 34 50 37 76 8z"/>
<path d="M6300 1278 c-68 -19 -124 -76 -135 -139 -14 -76 -1 -143 37 -190 40
-49 182 -75 263 -47 39 13 40 14 40 58 0 39 -3 45 -20 42 -11 -2 -46 -4 -77
-5 -48 -1 -62 2 -80 21 l-22 22 104 1 c58 1 111 1 118 0 23 -3 18 99 -9 155
-33 69 -130 106 -219 82z m92 -112 c16 -23 3 -41 -30 -42 -49 -1 -59 10 -38
41 13 20 22 24 39 19 12 -4 25 -12 29 -18z"/>
<path d="M6678 1275 c-32 -6 -60 -13 -62 -16 -5 -5 -9 -53 -7 -86 1 -21 2 -22
37 -7 47 20 102 24 131 11 31 -14 24 -30 -13 -34 -86 -10 -132 -25 -156 -51
-32 -34 -43 -82 -28 -126 17 -51 44 -70 104 -73 45 -1 58 3 88 27 l35 29 -5
-24 c-4 -25 -4 -25 71 -25 l76 0 -1 127 c-1 139 -8 174 -46 215 -37 41 -125
54 -224 33z m122 -225 c0 -32 -35 -61 -62 -51 -30 11 -29 42 2 58 37 19 60 16
60 -7z"/>
<path d="M7148 1285 c-2 -2 -16 -6 -32 -9 -105 -19 -140 -147 -56 -204 19 -13
47 -26 62 -29 32 -6 53 -27 43 -43 -9 -14 -63 -12 -110 5 -22 8 -40 15 -41 15
-1 0 -1 -26 0 -57 l1 -57 40 -9 c57 -12 169 -2 203 19 90 53 81 174 -15 210
-59 21 -81 40 -67 54 8 8 25 8 59 0 26 -6 50 -8 54 -5 3 4 6 27 7 51 1 37 -2
45 -20 49 -30 7 -124 14 -128 10z"/>
<path d="M8061 1269 c-23 -10 -41 -23 -41 -29 0 -6 -5 -8 -10 -5 -6 4 -9 14
-8 23 3 15 -8 17 -74 18 -78 2 -78 1 -79 -25 0 -24 0 -294 1 -333 0 -16 10
-18 78 -18 l78 0 -1 111 c-1 119 7 150 42 155 35 6 43 -24 43 -150 l0 -116 80
0 80 0 -2 144 c0 92 -5 155 -14 174 -25 61 -101 84 -173 51z"/>
<path d="M8748 1274 c-57 -17 -109 -66 -125 -117 -13 -43 -9 -126 8 -159 36
-71 89 -100 190 -104 146 -6 223 62 224 197 0 55 -4 72 -27 106 -49 74 -167
107 -270 77z m118 -118 c14 -11 19 -26 19 -64 -1 -58 -17 -82 -55 -82 -37 0
-53 22 -55 75 -3 70 43 106 91 71z"/>
<path d="M9950 1278 c-91 -25 -139 -97 -137 -204 2 -78 16 -107 71 -149 29
-22 49 -28 113 -32 51 -3 92 0 118 9 38 13 40 14 40 58 0 39 -2 45 -20 42 -66
-11 -135 -5 -155 13 -11 10 -18 20 -15 23 3 3 54 4 115 3 82 -1 110 2 111 11
8 82 -11 147 -56 192 -35 35 -120 51 -185 34z m81 -98 c10 -6 19 -21 19 -34 0
-21 -4 -23 -42 -21 -37 1 -42 4 -40 21 8 40 29 52 63 34z"/>
<path d="M10350 1279 c-95 -18 -90 -14 -90 -73 l0 -53 52 18 c54 18 113 18
131 0 16 -16 6 -21 -63 -32 -114 -18 -154 -55 -153 -141 0 -40 5 -55 27 -76
23 -23 35 -27 85 -27 48 0 64 4 83 23 30 27 38 28 31 2 -5 -19 0 -20 70 -20
l76 0 -3 144 c-2 133 -3 146 -26 178 -36 53 -122 75 -220 57z m100 -236 c0
-44 -69 -66 -84 -26 -8 19 1 32 28 43 36 14 56 8 56 -17z"/>
<path d="M2770 1143 c0 -75 5 -152 11 -172 13 -42 46 -70 94 -78 45 -7 76 1
108 31 l27 25 0 -24 c0 -24 2 -25 80 -25 l80 0 0 190 0 189 -79 0 -78 0 -2
-121 c-1 -130 -12 -161 -51 -151 -27 7 -30 23 -31 156 l-2 116 -78 0 -79 0 0
-136z"/>
<path d="M3243 1090 l1 -190 78 0 c43 0 78 3 79 8 0 4 1 51 2 105 2 92 4 100
26 118 17 14 36 19 60 17 l36 -3 2 68 2 67 -35 0 c-26 0 -43 -8 -65 -29 l-29
-29 0 28 0 29 -79 0 -78 0 0 -189z"/>
<path d="M4047 1274 c-4 -4 -7 -90 -7 -191 l0 -183 79 0 79 0 -2 187 -1 188
-71 3 c-38 1 -73 -1 -77 -4z"/>
<path d="M10899 1254 c0 -13 0 -94 0 -179 0 -85 0 -159 0 -165 1 -6 34 -10 79
-10 l78 0 -2 183 c-1 100 -2 185 -3 189 0 3 -35 6 -76 6 -72 0 -75 -1 -76 -24z"/>
</g>
</svg>
